<?xml version="1.0" encoding="UTF-8" standalone="no"?>
<svg
   width="189.378"
   height="38.997"
   viewBox="0 0 189.378 38.997"
   version="1.1"
   id="svg2"
   sodipodi:docname="rack.svg"
   inkscape:version="1.4 (86a8ad7, 2024-10-11)"
   xmlns:inkscape="http://www.inkscape.org/namespaces/inkscape"
   xmlns:sodipodi="http://sodipodi.sourceforge.net/DTD/sodipodi-0.dtd"
   xmlns="http://www.w3.org/2000/svg"
   xmlns:svg="http://www.w3.org/2000/svg">
  <sodipodi:namedview
     id="namedview2"
     pagecolor="#ffffff"
     bordercolor="#000000"
     borderopacity="0.25"
     inkscape:showpageshadow="2"
     inkscape:pageopacity="0.0"
     inkscape:pagecheckerboard="0"
     inkscape:deskcolor="#d1d1d1"
     inkscape:zoom="12.30673"
     inkscape:cx="69.921093"
     inkscape:cy="24.661304"
     inkscape:window-width="3440"
     inkscape:window-height="1387"
     inkscape:window-x="-8"
     inkscape:window-y="22"
     inkscape:window-maximized="1"
     inkscape:current-layer="Group_3" />
  <defs
     id="defs2">
    <linearGradient
       id="linear-gradient"
       x1="0.5"
       x2="0.5"
       y2="1"
       gradientUnits="objectBoundingBox">
      <stop
         offset="0"
         stop-color="#bd207a"
         id="stop1" />
      <stop
         offset="1"
         stop-color="#e91f4e"
         id="stop2" />
    </linearGradient>
    <clipPath
       id="clip-path">
      <path
         id="Path_1"
         data-name="Path 1"
         d="M19.5,0A19.489,19.489,0,1,0,39,19.491,19.494,19.494,0,0,0,19.5,0Z"
         fill="url(#linear-gradient)" />
    </clipPath>
    <clipPath
       id="clip-path-2">
      <rect
         id="Rectangle_9"
         data-name="Rectangle 9"
         width="189.378"
         height="38.994"
         fill="none" />
    </clipPath>
  </defs>
  <g
     id="Rackhost_logo"
     transform="translate(0 0.005)">
    <g
       id="Group_2"
       data-name="Group 2"
       transform="translate(0.002 38.991) rotate(-90)">
      <g
         id="Group_1"
         data-name="Group 1"
         clip-path="url(#clip-path)">
        <rect
           id="Rectangle_8"
           data-name="Rectangle 8"
           width="38.997"
           height="38.978"
           transform="translate(0 0)"
           fill="url(#linear-gradient)" />
      </g>
    </g>
    <g
       id="Group_3"
       data-name="Group 3"
       clip-path="url(#clip-path-2)"
       transform="translate(0,-0.004)">
      <path
         id="Path_2"
         data-name="Path 2"
         d="m 60.251,53.151 -5.086,-7.293 a 8.579,8.579 0 0 0 2.857,-2.486 7.521,7.521 0 0 0 1.254,-4.483 6.287,6.287 0 0 0 -0.775,-3.266 6.367,6.367 0 0 0 -2.076,-2.11 7.5,7.5 0 0 0 -2.745,-1.049 21.385,21.385 0 0 0 -3.367,-0.237 H 41.1 a 0.4,0.4 0 0 0 -0.4,0.4 v 20.822 a 0.4,0.4 0 0 0 0.4,0.4 h 5.729 a 0.4,0.4 0 0 0 0.4,-0.4 v -5.983 l 1.454,-0.008 v 0.006 l 1.925,-0.008 c 0.193,0 0.223,0.116 0.071,0.23 l -1.25,0.946 3.271,5.088 a 0.4,0.4 0 0 0 0.318,0.155 h 7 a 0.4,0.4 0 0 0 0.4,-0.4 0.411,0.411 0 0 0 -0.167,-0.327 M 52.369,41.006 a 2.192,2.192 0 0 1 -0.707,0.879 2.581,2.581 0 0 1 -1.231,0.537 11.772,11.772 0 0 1 -1.959,0.135 h -1.24 v -4.1 l -1.376,-1.042 c -0.139,-0.1 -0.105,-0.187 0.065,-0.187 l 2.827,-0.005 a 15.97,15.97 0 0 1 1.6,0.057 3.516,3.516 0 0 1 1.072,0.259 1.764,1.764 0 0 1 0.9,0.779 2.7,2.7 0 0 1 0.281,1.29 3.536,3.536 0 0 1 -0.232,1.4"
         transform="translate(-30.271,-23.963)"
         fill="#ffffff" />
      <path
         id="Path_3"
         data-name="Path 3"
         d="m 291.227,46.283 c -1.41,-1.026 -3.624,-1.546 -6.635,-1.546 a 20.527,20.527 0 0 0 -3.621,0.32 c -1.2,0.216 -2.109,0.391 -2.655,0.548 a 0.455,0.455 0 0 0 -0.338,0.382 v 4.127 c 0,0.222 0.3,0.321 0.521,0.321 h 0.454 c 0.056,0 0.112,0.028 0.164,0.006 a 16.628,16.628 0 0 1 2.4,-0.839 8.2,8.2 0 0 1 2.1,-0.316 6.67,6.67 0 0 1 2.941,0.5 1.6,1.6 0 0 1 0.833,1.594 l -0.037,1.127 a 20.766,20.766 0 0 0 -4.3,-0.489 8.008,8.008 0 0 0 -3.214,0.511 5.665,5.665 0 0 0 -2.354,2 5.951,5.951 0 0 0 -0.824,3.3 5.651,5.651 0 0 0 1.611,4.112 5.493,5.493 0 0 0 4.052,1.642 8.572,8.572 0 0 0 2.043,-0.2 7.188,7.188 0 0 0 3.087,-2.345 v 1.69 c 0,0.218 0.088,0.275 0.3,0.275 h 5.3 c 0.218,0 0.293,-0.056 0.293,-0.275 V 51.091 a 5.558,5.558 0 0 0 -2.13,-4.808 m -3.766,11.8 a 5.037,5.037 0 0 1 -2.4,1 c -1.954,0 -2.188,-1.193 -2.188,-1.707 0,-0.364 0.187,-2.185 3.168,-2.185 a 9.707,9.707 0 0 1 1.422,0.114 z"
         transform="translate(-205.747,-33.265)"
         fill="#2a143b"
         style="stroke-width:0.5;stroke-dasharray:none;stroke:#ffffff;stroke-opacity:1" />
      <path
         id="Path_4"
         data-name="Path 4"
         d="m 564.762,44.557 a 9,9 0 0 0 -6.794,2.54 9.635,9.635 0 0 0 -2.439,6.95 9.616,9.616 0 0 0 2.439,6.918 10.344,10.344 0 0 0 13.605,0 9.689,9.689 0 0 0 2.409,-6.918 9.68,9.68 0 0 0 -2.425,-6.939 9,9 0 0 0 -6.8,-2.551 m 2.731,11.969 a 4.353,4.353 0 0 1 -0.652,1.445 2.007,2.007 0 0 1 -0.887,0.688 3.108,3.108 0 0 1 -2.409,0 2.112,2.112 0 0 1 -0.9,-0.742 4.557,4.557 0 0 1 -0.611,-1.412 9.95,9.95 0 0 1 -0.242,-2.434 10.061,10.061 0 0 1 0.258,-2.5 4.321,4.321 0 0 1 0.657,-1.485 2.149,2.149 0 0 1 0.9,-0.719 3.1,3.1 0 0 1 1.156,-0.2 3.054,3.054 0 0 1 1.192,0.217 2.186,2.186 0 0 1 0.9,0.759 4.31,4.31 0 0 1 0.632,1.488 10.351,10.351 0 0 1 0.237,2.435 10.064,10.064 0 0 1 -0.231,2.451"
         transform="translate(-413.124,-33.131)"
         fill="#2a143b"
         style="stroke:#ffffff;stroke-opacity:1;stroke-width:0.5;stroke-dasharray:none" />
      <path
         id="Path_5"
         data-name="Path 5"
         d="m 651.84,41.184 h 4.612 c 0.219,0 0.515,-0.129 0.515,-0.343 v -3.93 a 0.4,0.4 0 0 0 -0.4,-0.4 l -4.73,0.212 v -4.249 a 0.508,0.508 0 0 0 -0.444,-0.454 l -0.056,-0.068 h -5.327 c -0.219,0 -0.322,0.3 -0.322,0.522 V 37 c -2.563,0 -4.86,-1.275 -7.86,-1.538 a 9.609,9.609 0 0 0 -4.14,0.256 8.394,8.394 0 0 0 -2.658,1.3 6.011,6.011 0 0 0 -1.664,1.93 5.147,5.147 0 0 0 -0.566,2.352 5.312,5.312 0 0 0 1.1,3.473 6.583,6.583 0 0 0 3.2,1.973 14.137,14.137 0 0 0 1.689,0.411 c 0.606,0.117 1.115,0.223 1.521,0.327 a 4.218,4.218 0 0 1 1.391,0.507 0.658,0.658 0 0 1 0.237,0.583 c 0,0.211 -0.061,0.523 -0.615,0.747 a 6.48,6.48 0 0 1 -3.763,0.08 10.022,10.022 0 0 1 -1.626,-0.581 7.438,7.438 0 0 1 -1.283,-0.692 c -0.321,-0.227 -0.606,-0.475 -0.861,-0.667 a 0.435,0.435 0 0 0 -0.237,-0.12 h -0.438 c -0.223,0 -0.352,0.255 -0.352,0.473 v 4.506 a 0.38,0.38 0 0 0 0.2,0.357 14.3,14.3 0 0 0 2.846,0.992 15.574,15.574 0 0 0 3.659,0.419 12.925,12.925 0 0 0 3.662,-0.458 8.542,8.542 0 0 0 2.693,-1.309 5.488,5.488 0 0 0 1.723,-1.972 5.349,5.349 0 0 0 0.609,-2.476 5.027,5.027 0 0 0 -1.042,-3.3 6.254,6.254 0 0 0 -2.974,-1.868 12.851,12.851 0 0 0 -1.767,-0.446 c -0.583,-0.108 -1.105,-0.215 -1.554,-0.322 a 4.223,4.223 0 0 1 -1.552,-0.573 0.736,0.736 0 0 1 -0.259,-0.611 c 0,-0.176 0.091,-0.464 0.62,-0.7 1.945,-0.854 4.931,1.167 10.058,1.167 v 6.612 c 0,2.134 0.5,3.711 1.571,4.683 1.06,0.956 2.727,1.441 4.987,1.441 a 19.122,19.122 0 0 0 2.432,-0.133 15.985,15.985 0 0 0 1.944,-0.372 0.445,0.445 0 0 0 0.345,-0.382 V 49.3 c 0,-0.218 -0.3,-0.425 -0.515,-0.425 h -0.457 a 0.421,0.421 0 0 0 -0.2,0.067 3.456,3.456 0 0 1 -0.869,0.3 4.157,4.157 0 0 1 -1.014,0.179 2.842,2.842 0 0 1 -1.377,-0.257 1.322,1.322 0 0 1 -0.59,-0.657 2.857,2.857 0 0 1 -0.153,-1.054 c -0.006,-0.443 0.045,-0.967 0.045,-1.56 v -4.71 z"
         transform="translate(-467.589,-23.758)"
         fill="#2a143b"
         style="stroke-width:0.5;stroke-dasharray:none;stroke:#ffffff;stroke-opacity:1" />
      <path
         id="Path_6"
         data-name="Path 6"
         d="m 374.189,42.81 6.269,-6.928 c 0.0897,-0.112474 0.10498,-0.267154 0.039,-0.395 -0.0696,-0.129837 -0.20791,-0.207773 -0.355,-0.2 h -6.286 c -0.13092,-0.0068 -0.25355,0.06416 -0.313,0.181 l -4.221,6.007 v -9.03 c -0.0215,-0.249916 -0.2111,-0.45273 -0.459,-0.491 h -5.328 c -0.221,0 -0.365,0.27 -0.365,0.491 V 46.6 c -1.90584,1.681096 -4.31593,2.681783 -6.852,2.845 -1.08302,0.052 -2.136,-0.364821 -2.89,-1.144 -0.8052,-1.004874 -1.19586,-2.279516 -1.092,-3.563 -0.0692,-1.275378 0.29405,-2.536788 1.031,-3.58 0.68367,-0.865731 1.7467,-1.343496 2.848,-1.28 0.51134,-0.006 1.02069,0.06475 1.511,0.21 0.42746,0.121869 0.84051,0.289506 1.232,0.5 0.33679,0.185971 0.65726,0.400066 0.958,0.64 0.3,0.233 0.552,0.436 0.755,0.632 0.0767,0.06375 0.17439,0.09656 0.274,0.092 h 0.685 c 0.221,0 0.514,-0.151 0.514,-0.369 v -4.57 c -0.0246,-0.158469 -0.1305,-0.292437 -0.279,-0.353 -2.97526,-1.503201 -6.40992,-1.821973 -9.611,-0.892 -1.15552,0.329766 -2.23036,0.894935 -3.157,1.66 -0.95118,0.811 -1.70755,1.825761 -2.213,2.969 -0.57175,1.372424 -0.84873,2.849673 -0.813,4.336 -0.0291,1.410266 0.22417,2.812108 0.745,4.123 0.46903,1.126998 1.18896,2.132159 2.105,2.939 2.05704,1.582873 4.60693,2.388568 7.2,2.275 2.61839,-0.120594 5.11194,-1.154032 7.048,-2.921 v 2.069 c 0,0.218 0.144,0.275 0.365,0.275 h 5.328 c 0.218,0 0.459,-0.056 0.459,-0.275 v -6.925 l 0.368,-0.375 4.3,7.449 c 0.071,0.114 0.181,0.127 0.32,0.127 h 6.353 c 0.218,0 0.4,-0.117 0.4,-0.336 -1.1e-4,-0.109677 -0.0544,-0.212224 -0.145,-0.274 z"
         transform="translate(-257.359,-23.759)"
         fill="#2a143b"
         style="stroke:#ffffff;stroke-width:0.5;stroke-dasharray:none;stroke-opacity:1"
         sodipodi:nodetypes="cccccccccsscccccccccccssccccccccccsssscccssccc" />
      <path
         id="Path_7"
         data-name="Path 7"
         d="m 221.251,53.7 -5.057,-7.254 a 8.544,8.544 0 0 0 2.841,-2.472 7.485,7.485 0 0 0 1.247,-4.46 6.263,6.263 0 0 0 -0.771,-3.249 6.346,6.346 0 0 0 -2.065,-2.1 7.411,7.411 0 0 0 -2.731,-1.008 21.6,21.6 0 0 0 -3.349,-0.2 h -9.16 c -0.22,0 -0.438,0.1 -0.438,0.326 v 20.708 a 0.535,0.535 0 0 0 0.438,0.5 h 5.7 c 0.218,0 0.271,-0.287 0.271,-0.5 V 48.04 l 1.51,-0.008 0.035,0.005 4,6.263 a 0.467,0.467 0 0 0 0.332,0.193 h 6.963 a 0.435,0.435 0 0 0 0.4,-0.434 0.488,0.488 0 0 0 -0.166,-0.365 m -7.839,-12.08 a 2.173,2.173 0 0 1 -0.7,0.874 2.6,2.6 0 0 1 -1.225,0.561 11.412,11.412 0 0 1 -1.948,0.162 H 208.3 v -5.33 l 1.509,-0.015 c 0.691,0 1.2,0.008 1.588,0.05 a 3.487,3.487 0 0 1 1.066,0.254 1.746,1.746 0 0 1 0.9,0.773 2.674,2.674 0 0 1 0.28,1.281 3.527,3.527 0 0 1 -0.231,1.391"
         transform="translate(-150.047,-24.502)"
         fill="#2a143b"
         style="stroke-width:0.5;stroke-dasharray:none;stroke:#ffffff;stroke-opacity:1" />
      <path
         id="Path_8"
         data-name="Path 8"
         d="m 495.988,36.8 c -1.03315,-0.01022 -2.05414,0.223442 -2.98,0.682 -0.73006,0.390688 -1.42792,0.838764 -2.087,1.34 v -6.416 c 0,-0.2 -0.162,-0.454 -0.362,-0.454 H 485.1 c -0.2,0 -0.33,0.252 -0.33,0.454 v 20.809 c 0,0.2 0.13,0.278 0.33,0.278 h 5.46 c 0.19149,0.01998 0.35893,-0.128493 0.362,-0.321 l -0.01,-10.227 c 0.3949,-0.25272 0.80959,-0.473104 1.24,-0.659 0.80199,-0.314188 1.69301,-0.314188 2.495,0 0.28644,0.144813 0.51269,0.385933 0.639,0.681 0.14583,0.461508 0.22266,0.942031 0.228,1.426 0.054,0.693 0.023,1.394 0.023,2.09 v 6.732 c 0,0.2 0.284,0.278 0.484,0.278 h 5.492 c 0.2,0 0.433,-0.077 0.433,-0.278 v -9.448 c 0.10835,-1.841114 -0.43666,-3.661386 -1.539,-5.14 -1.11597,-1.251223 -2.74219,-1.924394 -4.416,-1.828"
         transform="translate(-360.503,-23.758)"
         fill="#2a143b"
         sodipodi:nodetypes="cccsssssscccccccsssssccc"
         style="stroke-width:0.5;stroke-dasharray:none;stroke:#ffffff;stroke-opacity:1" />
    </g>
  </g>
</svg>
